<svg width="68" height="60" viewBox="0 0 68 60" fill="none" xmlns="http://www.w3.org/2000/svg">
<path d="M36.2777 18.5742L38.9847 2.32031C39.2074 0.984375 40.3675 0 41.7269 0C42.6058 0 43.4261 0.410156 43.9535 1.11328L45.9339 3.75H52.0394C53.5277 3.75 54.9574 4.34766 56.0121 5.40234L58.1214 7.5H64.6839C66.2425 7.5 67.4964 8.75391 67.4964 10.3125V13.125C67.4964 18.3047 63.3011 22.5 58.1214 22.5H54.3714H52.4964H50.0004L49.4027 26.0742L36.2777 18.5742V18.5742M48.7464 30.0117V56.25C48.7464 58.3242 47.0707 60 44.9964 60H41.2464C39.1722 60 37.4964 58.3242 37.4964 56.25V42.75C34.6839 44.1914 31.4964 45 28.1214 45Cnan nan 21.5589 44.1914 18.7464 42.75V56.25C18.7464 58.3242 17.0707 60 14.9964 60H11.2464C9.17223 60 7.49645 58.3242 7.49645 56.25V29.2734C4.12145 27.9961 1.47301 25.1367 0.558945 21.4805L0.113633 19.6641C-0.390273 17.6602 0.828477 15.6211 2.8441 15.1172Cnan nan 6.88707 15.832 7.39098 17.8477L7.84801 19.6641C8.25816 21.3281 9.75816 22.5 11.4808 22.5H14.9964H16.8714H35.598L48.7464 30.0117V30.0117M54.3714 9.375C54.3714 8.34016 53.5313 7.5 52.4964 7.5C51.4616 7.5 50.6214 8.34016 50.6214 9.375C50.6214 10.4098 51.4616 11.25 52.4964 11.25C53.5313 11.25 54.3714 10.4098 54.3714 9.375V9.375" fill="#E4A542" fill-opacity="0.4"/>
</svg>
