<svg width="20" height="20" viewBox="0 0 20 20" fill="none" xmlns="http://www.w3.org/2000/svg">
<path d="M8.84767 3.6289C9.40626 5.30468 8.83595 6.99609 7.57423 7.41015C6.31251 7.82422 4.83595 6.80078 4.27736 5.125C4.27736 5.125 4.28907 1.75781 5.55079 1.34375C5.55079 1.34375 8.28907 1.95312 8.84767 3.6289ZM3.92189 7.75781C4.66017 9.02344 4.48048 10.4961 3.52345 11.043Cnan nan 1.19142 11.0078 0.457043 9.74218Cnan nan -0.105457 7.0039 0.851574 6.45703C0.851574 6.45703 3.18361 6.49219 3.91798 7.75781H3.92189ZM2.70314 15.6719C4.75001 10.1523 8.38673 8.75 10 8.75C11.6133 8.75 15.25 10.1523 17.2969 15.6719C17.4375 16.0508 17.5 16.457 17.5 16.8633V16.9258C17.5 17.9336 16.6836 18.75 15.6758 18.75C15.2266 18.75 14.7813 18.6953 14.3477 18.5859L10.9102 17.7266C10.3125 17.5781 9.68751 17.5781 9.08986 17.7266L5.65236 18.5859C5.21876 18.6953 4.77345 18.75 4.32423 18.75C3.31642 18.75 2.50001 17.9336 2.50001 16.9258V16.8633C2.50001 16.457 2.56251 16.0508 2.70314 15.6719ZM16.4766 11.043C15.5195 10.4961 15.3399 9.02344 16.0781 7.75781Cnan nan 18.1875 5.91015 19.1445 6.45703Cnan nan 20.2813 8.47656 19.543 9.74218Cnan nan 17.4336 11.5898 16.4766 11.043ZM12.1133 7.41015C10.8516 6.99609 10.2813 5.30468 10.8399 3.6289Cnan nan 12.875 0.929685 14.1367 1.34375Cnan nan 15.9688 3.44922 15.4102 5.125Cnan nan 13.375 7.82422 12.1133 7.41015Z" fill="#80AF80"/>
</svg>
